<?xml version="1.0" encoding="utf-8"?>
<!-- Generator: Adobe Illustrator 27.0.1, SVG Export Plug-In . SVG Version: 6.00 Build 0)  -->
<svg version="1.1" id="rss-news-feed" xmlns="http://www.w3.org/2000/svg" xmlns:xlink="http://www.w3.org/1999/xlink" x="0px"
	 y="0px" viewBox="0 0 44 44" style="enable-background:new 0 0 44 44;" xml:space="preserve">
<style type="text/css">
	.st0{fill-rule:evenodd;clip-rule:evenodd;fill:#FF9A00;}
	.st1{fill-rule:evenodd;clip-rule:evenodd;fill:#FFFFFF;}
</style>
<circle class="st0" cx="22" cy="22" r="22"/>
<path class="st1" d="M7,32.7c0-2.4,1.9-4.3,4.3-4.3s4.3,1.9,4.3,4.3c0,0,0,0,0,0c0,2.4-1.9,4.3-4.3,4.3C8.9,37,7,35.1,7,32.7z
	 M37,37h-5.7c0-13.4-10.9-24.3-24.3-24.3V7C23.5,7,37,20.5,37,37z M27,37h-5.7c0-7.9-6.4-14.3-14.3-14.3V17C18,17,27,26,27,37z"/>
</svg>
